<svg width="75" height="75" viewBox="0 0 75 75" fill="none" xmlns="http://www.w3.org/2000/svg">
<path fill-rule="evenodd" clip-rule="evenodd" d="M37.5 75C58.2107 75 75 58.2107 75 37.5C75 16.7893 58.2107 0 37.5 0C16.7893 0 0 16.7893 0 37.5C0 58.2107 16.7893 75 37.5 75Z" fill="#1A53A3"/>
<path fill-rule="evenodd" clip-rule="evenodd" d="M56.9285 17.6802C57.039 17.636 57.1494 17.625 57.2708 17.625C57.8781 17.625 58.375 18.1219 58.375 18.7292V52.1192C58.375 52.6271 58.0438 53.0246 57.58 53.1902L45.125 57.375L31.875 52.7375L20.0715 57.3198C19.961 57.364 19.8506 57.375 19.7292 57.375C19.1219 57.375 18.625 56.8781 18.625 56.2708V22.8808C18.625 22.3729 18.9673 21.9754 19.431 21.8208L31.875 17.625L45.125 22.2625L56.9285 17.6802ZM31.875 48.3098L45.125 52.9583V26.6902L31.875 22.0417V48.3098Z" fill="white"/>
</svg>
