<svg width="41" height="41" viewBox="0 0 41 41" fill="none" xmlns="http://www.w3.org/2000/svg">
<path fill-rule="evenodd" clip-rule="evenodd" d="M38.9285 0.680208C39.039 0.636042 39.1494 0.625 39.2708 0.625C39.8781 0.625 40.375 1.12187 40.375 1.72917V35.1192C40.375 35.6271 40.0438 36.0246 39.58 36.1902L27.125 40.375L13.875 35.7375L2.07146 40.3198C1.96104 40.364 1.85062 40.375 1.72917 40.375C1.12187 40.375 0.625 39.8781 0.625 39.2708V5.88083C0.625 5.37292 0.967292 4.97542 1.43104 4.82083L13.875 0.625L27.125 5.2625L38.9285 0.680208ZM13.875 31.3098L27.125 35.9583V9.69021L13.875 5.04167V31.3098Z" fill="white"/>
</svg>
